<?xml version="1.0" encoding="utf-8"?>
<!-- Generator: Adobe Illustrator 21.1.0, SVG Export Plug-In . SVG Version: 6.00 Build 0)  -->
<svg version="1.1" id="Capa_1" xmlns="http://www.w3.org/2000/svg" xmlns:xlink="http://www.w3.org/1999/xlink" x="0px" y="0px"
	 viewBox="0 0 500 220" style="enable-background:new 0 0 500 220;" xml:space="preserve">
<style type="text/css">
	.st0{fill:#EEEEEE;}
</style>
<g>
	<path class="st0" d="M141.6,170.7V19.4h54.9c23.9,0,41.7,7.5,53.6,22.6c11.9,15.1,17.8,32.5,17.8,52.3c0,22.6-6.4,41-19.1,55.2
		c-12.7,14.1-29.2,21.2-49.5,21.2H141.6L141.6,170.7z M185.2,136h11.4c7.2,0,13.3-3.7,18.2-11.2c5-7.5,7.5-17.7,7.5-30.6
		c0-11-2.2-20.6-6.6-28.6c-4.4-8-10.8-12-19.1-12h-11.4L185.2,136L185.2,136z"/>
	<path class="st0" d="M36,123.9l37-4.7c2.4,13.4,9.3,20.1,20.7,20.1c5.2,0,9.4-1.4,12.6-4.2s4.9-6.6,4.9-11.3c0-3.2-0.9-6-2.6-8.4
		c-1.8-2.4-3.7-4.1-5.6-5.1c-2-1-5.4-1.5-10.3-1.5H75.4V78h14.5c7.8,0,12.7-1.4,14.9-4.3c2.2-2.8,3.3-5.8,3.3-8.9
		c0-3.9-1.4-7.1-4.2-9.6c-2.8-2.6-6.4-3.9-10.9-3.9c-9.7,0-15.6,5.6-17.7,16.8L41,62.5c3.1-13.8,9.7-24.5,19.8-32
		C71,23,82.9,19.3,96.7,19.3c15.5,0,28,3.8,37.4,11.3c9.4,7.5,14.1,17.6,14.1,30.2c0,7.5-2,14.1-6,19.7s-9.1,9.4-15.3,11.3
		c17.1,5.4,25.7,16.9,25.7,34.6c0,14.1-5.2,25.1-15.5,32.9c-10.4,7.8-23.8,11.7-40.3,11.7C63.7,171,43.4,155.3,36,123.9z"/>
	<path class="st0" d="M141.6,38.6c4.4,6.3,6.7,13.7,6.7,22.3c0,7.5-2,14.1-6,19.7c-0.2,0.3-0.4,0.6-0.7,0.9V38.6L141.6,38.6z
		 M141.6,99.5c7.4,6.3,11.1,15.3,11.1,26.9c0,11.9-3.7,21.6-11.1,29V99.5z"/>
	<path class="st0" d="M276.8,28.7h5.4v21.2h-5.4V28.7L276.8,28.7z M276.8,20.5h5.4v5.1h-5.4V20.5L276.8,20.5z M299.2,48.7
		c-0.9,0.5-2,0.8-3.1,1.1s-2.2,0.4-3.3,0.4c-2,0-3.7-0.6-4.9-1.8c-1.2-1.2-1.9-2.9-1.9-5.1c0-1.3,0.2-2.4,0.6-3.3
		c0.4-0.9,1.2-1.7,2.2-2.3s2.3-1.1,4-1.4c1.7-0.3,3.7-0.5,6.2-0.6v-0.6c0-0.5-0.1-0.9-0.4-1.2s-0.7-0.5-1.2-0.7s-1.1-0.3-1.7-0.3
		c-0.7-0.1-1.4-0.1-2.1-0.1c-0.8,0-1.8,0.1-2.8,0.2c-1,0.1-2,0.3-3.1,0.5v-4.3c1.3-0.4,2.6-0.6,3.9-0.7s2.6-0.2,3.8-0.2
		c1.3,0,2.4,0.1,3.5,0.4s2,0.7,2.8,1.3c0.8,0.6,1.4,1.3,1.9,2.1c0.5,0.8,0.7,1.9,0.7,3v14.7H299v-1.1H299.2z M294.4,46
		c0.7,0,1.5-0.1,2.3-0.4c0.8-0.3,1.6-0.6,2.3-1.1V40c-1.3,0-2.4,0.1-3.3,0.2c-0.9,0.1-1.7,0.2-2.3,0.5c-0.6,0.2-1.1,0.6-1.4,1
		s-0.5,1-0.5,1.6C291.6,45,292.5,46,294.4,46L294.4,46z M321.9,34c-0.6-0.3-1.3-0.5-2-0.7s-1.5-0.3-2.3-0.3s-1.4,0.1-1.9,0.4
		c-0.5,0.3-0.8,0.6-1.1,1.1c-0.3,0.5-0.4,1.1-0.5,1.8s-0.1,1.5-0.1,2.4s0,1.7,0.1,2.4c0.1,0.8,0.2,1.4,0.5,2s0.6,1,1.1,1.4
		c0.5,0.3,1.1,0.5,1.8,0.5c0.7,0,1.4-0.1,2.1-0.2c0.7-0.1,1.5-0.3,2.2-0.5L321.9,34L321.9,34z M317.4,49.4c-1.7,0-3.1-0.3-4.2-0.8
		s-2-1.2-2.7-2.2c-0.7-0.9-1.2-2.1-1.5-3.4c-0.3-1.3-0.4-2.8-0.4-4.4c0-1.6,0.1-3.1,0.4-4.3c0.3-1.3,0.8-2.4,1.4-3.2
		c0.7-0.9,1.6-1.5,2.7-2s2.5-0.7,4.2-0.7c0.8,0,1.6,0.1,2.4,0.3c0.8,0.2,1.6,0.5,2.3,0.7v-0.8h5.4v22.2c0,1.2-0.2,2.2-0.7,3.1
		c-0.4,0.8-1.1,1.6-1.9,2.1c-0.8,0.6-1.8,1-2.8,1.3c-1.1,0.3-2.3,0.4-3.6,0.4c-1.1,0-2.3-0.1-3.6-0.2c-1.3-0.2-2.6-0.4-4-0.7v-4.2
		c0.5,0.1,1,0.2,1.6,0.3s1.1,0.2,1.6,0.2c0.5,0.1,1,0.1,1.4,0.1s0.8,0.1,1.1,0.1c0.9,0,1.7,0,2.3-0.1c0.7-0.1,1.2-0.2,1.7-0.4
		s0.8-0.5,1-0.9s0.3-0.9,0.3-1.6v-1.6c-0.8,0.3-1.5,0.5-2.3,0.6C318.9,49.3,318.2,49.4,317.4,49.4L317.4,49.4z M332.4,49.9v-20
		l5.5-1.6V30c1.1-0.5,2.2-0.9,3.3-1.2c1.1-0.3,2.3-0.4,3.6-0.4c1.1,0,2.1,0.2,3,0.5c0.8,0.3,1.5,0.8,2,1.4s0.9,1.3,1.2,2.2
		c0.3,0.8,0.4,1.7,0.4,2.7v14.7H346V35.2c0-0.8-0.2-1.4-0.6-1.8c-0.4-0.4-1-0.5-1.9-0.5c-1.2,0-3.1,0.5-5.6,1.5v15.5H332.4
		L332.4,49.9z M365.1,50.2c-1.8,0-3.3-0.3-4.5-0.8c-1.3-0.5-2.3-1.2-3.1-2.2c-0.8-0.9-1.4-2.1-1.7-3.4s-0.5-2.8-0.5-4.4
		c0-1.7,0.2-3.2,0.5-4.6c0.4-1.4,0.9-2.5,1.7-3.5c0.8-0.9,1.8-1.7,3-2.2s2.7-0.8,4.5-0.8s3.3,0.3,4.5,0.8s2.2,1.2,3,2.2
		c0.8,0.9,1.3,2.1,1.7,3.5c0.4,1.4,0.5,2.9,0.5,4.6c0,1.6-0.2,3.1-0.5,4.4c-0.4,1.3-0.9,2.4-1.7,3.4c-0.8,0.9-1.8,1.6-3,2.1
		C368.4,49.9,366.9,50.2,365.1,50.2L365.1,50.2z M365.1,32.9c-1.5,0-2.6,0.5-3.2,1.5c-0.7,1-1,2.7-1,5.1c0,2.3,0.3,3.9,1,4.9
		s1.8,1.4,3.2,1.4c1.4,0,2.4-0.5,3.1-1.4s1.1-2.6,1.1-4.9c0-2.4-0.4-4.1-1.1-5.1S366.5,32.9,365.1,32.9L365.1,32.9z M362.1,25.6
		l2.5-5.1h6l-4.2,5.1H362.1L362.1,25.6z M394.1,33.8c-1.5-0.3-2.9-0.6-4.3-0.7c-1.3-0.2-2.6-0.3-3.8-0.3c-2,0-3,0.6-3,1.7
		c0,0.6,0.3,1.1,0.9,1.5c0.6,0.3,1.7,0.6,3.1,0.9c2.7,0.6,4.7,1.4,6,2.4c1.3,1.1,2,2.5,2,4.5c0,2.3-0.8,4-2.4,5s-3.8,1.5-6.6,1.5
		c-0.5,0-1.2,0-1.8-0.1c-0.7-0.1-1.4-0.2-2.1-0.3s-1.4-0.3-2.1-0.4c-0.7-0.2-1.3-0.4-1.7-0.6v-4.1c1.5,0.4,2.9,0.7,4.2,0.9
		c1.3,0.2,2.4,0.2,3.4,0.2c1.5,0,2.5-0.2,3.2-0.5s1-0.9,1-1.6c0-0.4-0.1-0.6-0.2-0.9c-0.1-0.2-0.4-0.5-0.7-0.6
		c-0.3-0.2-0.8-0.3-1.3-0.5c-0.6-0.2-1.2-0.3-2-0.5c-2.6-0.6-4.5-1.4-5.8-2.3c-1.3-1-1.9-2.4-1.9-4.3c0-1.1,0.2-2.1,0.6-2.9
		c0.4-0.8,1-1.4,1.7-1.9s1.6-0.8,2.6-1.1c1-0.2,2-0.3,3.2-0.3c1.3,0,2.6,0.1,4,0.3c1.3,0.2,2.6,0.5,4,0.8v4.2H394.1z M413.1,49.4
		c-0.9,0.3-1.8,0.5-2.8,0.7c-0.9,0.2-1.8,0.2-2.7,0.2c-1.1,0-2.1-0.2-2.9-0.5c-0.8-0.4-1.5-0.8-2-1.5c-0.5-0.6-0.9-1.4-1.2-2.2
		c-0.2-0.8-0.4-1.7-0.4-2.7V33.1h-3.7v-4.4h3.7v-5.3l5.3-1.6v7h5.9v4.4h-5.9v10.4c0,0.9,0.1,1.5,0.3,1.8s0.8,0.5,1.6,0.5
		c0.5,0,1.1-0.1,2-0.2c0.8-0.1,1.7-0.3,2.7-0.5v4.2H413.1z M416.3,28.7h5.4v21.2h-5.4V28.7L416.3,28.7z M416.3,20.5h5.4v5.1h-5.4
		V20.5L416.3,20.5z M434.6,28.4c1.1,0,2.3,0.1,3.5,0.3c1.2,0.2,2.4,0.5,3.5,1v4.2c-1.3-0.4-2.5-0.6-3.5-0.7c-1-0.1-1.9-0.2-2.5-0.2
		c-1,0-1.8,0.1-2.3,0.4c-0.6,0.3-1.1,0.7-1.4,1.3c-0.4,0.6-0.6,1.2-0.7,2s-0.2,1.6-0.2,2.6c0,1.1,0.1,2,0.2,2.8s0.4,1.5,0.7,2
		c0.4,0.6,0.8,1,1.4,1.2c0.6,0.3,1.4,0.4,2.4,0.4c0.8,0,1.7-0.1,2.7-0.2c0.9-0.1,2.1-0.4,3.6-0.8V49c-1.3,0.5-2.5,0.8-3.8,1
		c-1.2,0.2-2.4,0.3-3.6,0.3c-1.6,0-3-0.3-4.2-0.8s-2.1-1.3-2.8-2.2c-0.7-1-1.3-2.1-1.6-3.5c-0.3-1.3-0.5-2.9-0.5-4.5
		s0.2-3.1,0.5-4.4c0.3-1.3,0.9-2.5,1.6-3.4s1.7-1.7,2.8-2.2C431.5,28.7,432.9,28.4,434.6,28.4L434.6,28.4z M454.2,50.2
		c-1.8,0-3.3-0.3-4.5-0.8c-1.3-0.5-2.3-1.2-3.1-2.2c-0.8-1-1.4-2.1-1.7-3.4c-0.4-1.3-0.5-2.8-0.5-4.4c0-1.7,0.2-3.2,0.5-4.6
		c0.4-1.4,0.9-2.5,1.7-3.5c0.8-0.9,1.8-1.7,3-2.2s2.7-0.8,4.5-0.8s3.3,0.3,4.5,0.8s2.2,1.2,3,2.2c0.8,0.9,1.3,2.1,1.7,3.5
		c0.4,1.4,0.5,2.9,0.5,4.6c0,1.6-0.2,3.1-0.5,4.5c-0.3,1.3-0.9,2.5-1.7,3.4c-0.8,0.9-1.8,1.7-3,2.2C457.5,50,456,50.2,454.2,50.2
		L454.2,50.2z M454.2,32.9c-1.5,0-2.6,0.5-3.2,1.5c-0.7,1-1,2.7-1,5.1c0,2.3,0.3,4,1,4.9c0.7,1,1.8,1.4,3.2,1.4
		c1.4,0,2.4-0.5,3.1-1.4c0.7-1,1.1-2.6,1.1-4.9c0-2.4-0.4-4.1-1.1-5.1S455.6,32.9,454.2,32.9z"/>
	<path class="st0" d="M296.9,107.5c2.7,0,5.3-0.2,7.9-0.6s5.7-1.1,9.3-2v8.5c-3.2,1.1-6.2,1.9-9.2,2.4s-5.9,0.8-8.6,0.8
		c-3.5,0-6.6-0.4-9-1.3c-2.5-0.9-4.5-2.2-6-4c-1.6-1.8-2.7-4.1-3.4-6.8c-0.7-2.7-1.1-5.9-1.1-9.7c0-8,1.6-13.8,4.9-17.2
		c3.2-3.5,8.2-5.2,14.9-5.2c6.6,0,11.4,1.6,14.5,4.9s4.6,8.7,4.6,16.2c0,0.9,0,1.8-0.1,2.9s-0.1,2.1-0.2,3.2H288
		c0.3,2.7,1.1,4.7,2.4,6C291.6,106.8,293.8,107.5,296.9,107.5L296.9,107.5z M304.9,90.7c-0.2-3.1-0.8-5.4-2-7s-3.3-2.3-6.3-2.3
		c-1.6,0-2.9,0.2-4,0.6s-1.9,1-2.6,1.8s-1.1,1.8-1.5,2.9c-0.3,1.2-0.6,2.5-0.7,4.1L304.9,90.7L304.9,90.7z M324,115.8V75.4l11.1-3.3
		v3.4c2.2-1.1,4.5-1.9,6.7-2.4s4.6-0.8,7.2-0.8c2.3,0,4.3,0.3,6,1s3.1,1.6,4.1,2.9c1.1,1.2,1.9,2.7,2.4,4.4c0.5,1.7,0.8,3.5,0.8,5.5
		v29.7h-10.9V86.1c0-1.7-0.4-2.9-1.2-3.6c-0.8-0.7-2.1-1.1-3.8-1.1c-2.5,0-6.3,1-11.3,3v31.4H324L324,115.8z M400.1,114.8
		c-1.9,0.6-3.7,1.1-5.6,1.4s-3.7,0.5-5.5,0.5c-2.3,0-4.3-0.4-5.9-1.1c-1.7-0.7-3-1.7-4.1-3s-1.8-2.8-2.3-4.5s-0.7-3.5-0.7-5.5V81.9
		h-7.5v-9h7.5V62l10.8-3.3v14.1h12v9h-12v21c0,1.7,0.2,3,0.7,3.7s1.6,1.1,3.3,1.1c0.9,0,2.3-0.1,4-0.4s3.5-0.6,5.4-1.1L400.1,114.8
		L400.1,114.8z M432.4,113.5c-1.9,0.9-4,1.7-6.3,2.3c-2.3,0.6-4.5,0.9-6.7,0.9c-4.1,0-7.4-1.2-9.9-3.6s-3.8-5.8-3.8-10.2
		c0-2.6,0.4-4.8,1.3-6.7c0.9-1.9,2.3-3.5,4.4-4.7c2-1.3,4.7-2.2,8.1-2.9c3.4-0.7,7.5-1,12.6-1.1V86c0-1-0.3-1.8-0.9-2.4
		s-1.4-1.1-2.3-1.4c-1-0.3-2.2-0.5-3.5-0.7c-1.4-0.1-2.8-0.2-4.3-0.2c-1.7,0-3.6,0.1-5.6,0.4s-4.1,0.6-6.2,1.1v-8.7
		c2.6-0.7,5.3-1.2,8-1.5s5.3-0.4,7.7-0.4c2.6,0,5,0.3,7.2,0.8s4.1,1.4,5.7,2.5s2.9,2.6,3.8,4.3c0.9,1.7,1.4,3.8,1.4,6.1v29.7h-10.6
		v-2.1H432.4z M422.7,107.9c1.5,0,3.1-0.3,4.7-0.9c1.7-0.6,3.2-1.3,4.7-2.1v-9.2c-2.6,0.1-4.8,0.2-6.7,0.3c-1.9,0.2-3.5,0.5-4.7,0.9
		c-1.3,0.5-2.2,1.1-2.8,2c-0.6,0.8-0.9,2-0.9,3.3C417,106,418.9,107.9,422.7,107.9L422.7,107.9z M452.4,57.5l11-3.3v61.6h-11V57.5z"
		/>
	<path class="st0" d="M277.2,142.3h5.4v21.2h-5.4V142.3L277.2,142.3z M277.2,134.2h5.4v5.1h-5.4V134.2L277.2,134.2z M319.6,147.7
		c-0.6-0.3-1.3-0.5-2-0.7s-1.5-0.3-2.3-0.3s-1.4,0.1-1.9,0.4c-0.5,0.3-0.8,0.6-1.1,1.1c-0.3,0.5-0.4,1.1-0.5,1.8s-0.1,1.5-0.1,2.4
		s0,1.7,0.1,2.4c0.1,0.8,0.2,1.4,0.5,2s0.6,1,1.1,1.4c0.5,0.3,1.1,0.5,1.8,0.5c0.7,0,1.4-0.1,2.1-0.2c0.7-0.1,1.5-0.3,2.2-0.5
		L319.6,147.7L319.6,147.7z M315,163.1c-1.7,0-3.1-0.3-4.2-0.8s-2-1.2-2.7-2.2c-0.7-0.9-1.2-2.1-1.5-3.4s-0.4-2.8-0.4-4.4
		c0-1.6,0.1-3.1,0.4-4.3c0.3-1.3,0.8-2.4,1.4-3.2c0.7-0.9,1.6-1.5,2.7-2s2.5-0.7,4.2-0.7c0.8,0,1.6,0.1,2.4,0.3s1.6,0.5,2.3,0.7
		v-0.8h5.4v22.2c0,1.2-0.2,2.2-0.7,3.1c-0.4,0.8-1.1,1.6-1.9,2.1c-0.8,0.6-1.8,1-2.8,1.3c-1.1,0.3-2.3,0.4-3.6,0.4
		c-1.1,0-2.3-0.1-3.6-0.2c-1.3-0.2-2.6-0.4-4-0.7v-4.2c0.5,0.1,1,0.2,1.6,0.3s1.1,0.2,1.6,0.2c0.5,0.1,1,0.1,1.4,0.1
		s0.8,0.1,1.1,0.1c0.9,0,1.7,0,2.3-0.1c0.7-0.1,1.2-0.2,1.7-0.4s0.8-0.5,1-0.9s0.3-0.9,0.3-1.6v-1.6c-0.8,0.3-1.5,0.5-2.3,0.6
		C316.5,163,315.8,163.1,315,163.1L315,163.1z M349.5,142.3h5.4v21.2h-5.4V142.3L349.5,142.3z M349.5,134.2h5.4v5.1h-5.4V134.2
		L349.5,134.2z M393.1,163.1c-0.9,0.3-1.8,0.5-2.8,0.7c-0.9,0.2-1.8,0.2-2.7,0.2c-1.1,0-2.1-0.2-2.9-0.5c-0.8-0.4-1.5-0.8-2-1.5
		c-0.5-0.6-0.9-1.4-1.2-2.2c-0.2-0.8-0.4-1.7-0.4-2.7v-10.3h-3.7v-4.4h3.7V137l5.3-1.6v7h5.9v4.4h-5.9v10.4c0,0.9,0.1,1.5,0.3,1.8
		c0.2,0.4,0.8,0.5,1.6,0.5c0.5,0,1.1-0.1,2-0.2c0.8-0.1,1.7-0.3,2.7-0.5v4.3H393.1z M428.9,162.4c-0.9,0.5-2,0.8-3.1,1.1
		s-2.2,0.4-3.3,0.4c-2,0-3.7-0.6-4.9-1.8c-1.2-1.2-1.9-2.9-1.9-5.1c0-1.3,0.2-2.4,0.6-3.3c0.4-0.9,1.2-1.7,2.2-2.3s2.3-1.1,4-1.4
		c1.7-0.3,3.7-0.5,6.2-0.6v-0.6c0-0.5-0.1-0.9-0.4-1.2s-0.7-0.5-1.2-0.7s-1.1-0.3-1.7-0.3c-0.7-0.1-1.4-0.1-2.1-0.1
		c-0.8,0-1.8,0.1-2.8,0.2c-1,0.1-2,0.3-3.1,0.5V143c1.3-0.4,2.6-0.6,3.9-0.7c1.3-0.1,2.6-0.2,3.8-0.2c1.3,0,2.4,0.1,3.5,0.4
		c1.1,0.3,2,0.7,2.8,1.3s1.4,1.3,1.9,2.1s0.7,1.9,0.7,3v14.7h-5.3v-1.2H428.9z M424.1,159.6c0.7,0,1.5-0.1,2.3-0.4
		c0.8-0.3,1.6-0.6,2.3-1.1v-4.5c-1.3,0-2.4,0.1-3.3,0.2c-0.9,0.1-1.7,0.2-2.3,0.5c-0.6,0.2-1.1,0.6-1.4,1s-0.5,1-0.5,1.6
		C421.2,158.7,422.2,159.6,424.1,159.6L424.1,159.6z M458.5,134.8l5.4-1.6v30.4h-5.4V134.8z"/>
	<path class="st0" d="M36.4,183.6c-0.2,0-0.4,0.2-0.4,0.4v0.4c0,0.2,0.2,0.4,0.4,0.4h3.7v15.1c0,0.2,0.2,0.4,0.4,0.4h0.4
		c0.2,0,0.4-0.2,0.4-0.4v-15.1H45c0.2,0,0.4-0.2,0.4-0.4V184c0-0.2-0.2-0.4-0.4-0.4H36.4L36.4,183.6z M64.4,183.4
		c-4.7,0-8.6,3.8-8.6,8.6c0,4.7,3.8,8.6,8.6,8.6c4.7,0,8.6-3.8,8.6-8.6C72.9,187.2,69.1,183.4,64.4,183.4L64.4,183.4z M64.4,184.5
		c4.6,0,7.4,4,7.4,7.4c0,4.6-4,7.4-7.4,7.4c-4.6,0-7.4-4-7.4-7.4C57,188.6,59.7,184.5,64.4,184.5L64.4,184.5z M101.3,183.5
		c0-0.2-0.2-0.4-0.4-0.4c-0.3,0-0.3,0.2-0.4,0.3l-6.8,14.9l-6.9-14.9c-0.1-0.2-0.2-0.3-0.4-0.3c-0.2,0-0.4,0.2-0.4,0.4v16.4
		c0,0.2,0.2,0.4,0.4,0.4h0.4c0.2,0,0.4-0.2,0.4-0.4v-12.7l6.1,13.3c0.1,0.1,0.2,0.2,0.4,0.2c0.2,0,0.3-0.1,0.4-0.2l6.1-13.3v12.7
		c0,0.2,0.2,0.4,0.4,0.4h0.4c0.2,0,0.4-0.2,0.4-0.4L101.3,183.5L101.3,183.5z M122.8,183.4c-4.7,0-8.6,3.8-8.6,8.6
		c0,4.7,3.8,8.6,8.6,8.6c4.7,0,8.6-3.8,8.6-8.6C131.4,187.2,127.6,183.4,122.8,183.4L122.8,183.4z M122.8,184.5c4.6,0,7.4,4,7.4,7.4
		c0,4.6-4,7.4-7.4,7.4c-4.6,0-7.4-4-7.4-7.4C115.5,188.6,118.2,184.5,122.8,184.5L122.8,184.5z M156.6,184.9c-1.4-0.9-3-1.5-4.8-1.5
		c-4.7,0-8.6,3.8-8.6,8.6c0,4.7,3.8,8.6,8.6,8.6c1.7,0,3.3-0.5,4.6-1.3c0,0,0.3-0.2,0.7-0.5c0.1-0.1,0.2-0.2,0.2-0.4v-5.2
		c0-0.2-0.2-0.4-0.4-0.4h-5.6c-0.2,0-0.4,0.2-0.4,0.4v0.4c0,0.2,0.2,0.4,0.4,0.4h4.8v4c0,0-0.1,0.1-0.4,0.3
		c-1.1,0.6-2.2,1.1-3.8,1.1c-3.4,0-7.4-2.7-7.4-7.4c0-3.3,2.7-7.4,7.4-7.4c1.7,0,3,0.5,4.2,1.3c0.1,0.1,0.3,0.2,0.5,0l0.3-0.4
		C156.9,185.3,157,185.1,156.6,184.9L156.6,184.9L156.6,184.9z M179.6,199.6l-5.3-5.9c3.2-0.5,4.9-2.4,4.9-5.2
		c0-3.6-2.5-4.9-5.8-4.9h-1.9c-0.2,0-0.4,0.2-0.4,0.4v15.9c0,0.2,0.2,0.4,0.4,0.4h0.4c0.2,0,0.4-0.2,0.4-0.4v-15.1h1.1
		c2.2,0,4.6,0.6,4.6,3.8c0,2.9-2.4,4.2-5.3,4.2c-0.4,0-0.5,0.4-0.3,0.7l6.2,6.8c0.1,0.1,0.2,0.2,0.3,0.2h0.6
		C179.7,200.3,179.9,199.9,179.6,199.6L179.6,199.6L179.6,199.6z M196.6,183.5c-0.1-0.2-0.2-0.3-0.4-0.3s-0.3,0.1-0.4,0.3l-5.2,16.3
		c-0.1,0.3,0.1,0.5,0.4,0.5h0.5c0.2,0,0.3-0.1,0.4-0.3l1.2-3.8h6.5l1.2,3.8c0.1,0.2,0.2,0.3,0.4,0.3h0.5c0.3,0,0.4-0.3,0.4-0.5
		L196.6,183.5L196.6,183.5z M199.1,195h-5.7l2.8-9L199.1,195L199.1,195z M215.4,184.8h5.9c0.2,0,0.4-0.2,0.4-0.4V184
		c0-0.2-0.2-0.4-0.4-0.4h-6.7c-0.2,0-0.4,0.2-0.4,0.4v15.9c0,0.2,0.2,0.4,0.4,0.4h0.4c0.2,0,0.4-0.2,0.4-0.4v-8h5.9
		c0.2,0,0.4-0.2,0.4-0.4V191c0-0.2-0.2-0.4-0.4-0.4h-5.9L215.4,184.8L215.4,184.8z M235.8,182.2c-0.1,0.2-0.2,0.3-0.4,0.3h-0.3
		c-0.3,0-0.4-0.3-0.4-0.4l1-4.2c0.1-0.2,0.2-0.2,0.4-0.2h0.9c0.2,0,0.5,0.2,0.4,0.4L235.8,182.2L235.8,182.2z M235,183.6
		c-0.2,0-0.4,0.2-0.4,0.4v15.9c0,0.2,0.2,0.4,0.4,0.4h0.4c0.2,0,0.4-0.2,0.4-0.4V184c0-0.2-0.2-0.4-0.4-0.4H235L235,183.6z
		 M254.1,183.5c-0.1-0.2-0.2-0.3-0.4-0.3s-0.3,0.1-0.4,0.3l-5.2,16.3c-0.1,0.3,0.1,0.5,0.4,0.5h0.5c0.2,0,0.3-0.1,0.4-0.3l1.2-3.8
		h6.5l1.2,3.8c0.1,0.2,0.2,0.3,0.4,0.3h0.5c0.3,0,0.4-0.3,0.4-0.5L254.1,183.5L254.1,183.5z M256.6,195h-5.7l2.8-9L256.6,195
		L256.6,195z M289.2,198.1c-0.2-0.2-0.4-0.2-0.6-0.1c-1,0.7-2.5,1.3-4.2,1.3c-3.4,0-7.4-2.7-7.4-7.4c0-4.6,4-7.4,7.4-7.4
		c1.7,0,3,0.5,4.2,1.3c0.1,0.1,0.3,0.2,0.5,0l0.3-0.4c0.1-0.1,0.2-0.3-0.1-0.5l-0.1-0.1c-1.4-0.9-3-1.5-4.8-1.5
		c-4.7,0-8.6,3.8-8.6,8.6c0,4.7,3.8,8.6,8.6,8.6c1.8,0,3.5-0.6,4.9-1.5c0.3-0.2,0.3-0.4,0.1-0.6L289.2,198.1L289.2,198.1z
		 M309.5,183.4c-4.7,0-8.6,3.8-8.6,8.6c0,4.7,3.8,8.6,8.6,8.6c4.7,0,8.6-3.8,8.6-8.6S314.3,183.4,309.5,183.4L309.5,183.4z
		 M309.5,184.5c4.6,0,7.4,4,7.4,7.4c0,4.6-4,7.4-7.4,7.4c-4.6,0-7.4-4-7.4-7.4C302.2,188.6,304.9,184.5,309.5,184.5L309.5,184.5z
		 M341.8,183.6c-0.2,0-0.4,0.2-0.4,0.4v13.8l-9.6-14.5c-0.1-0.1-0.2-0.2-0.3-0.2c-0.2,0-0.4,0.2-0.4,0.4v16.3c0,0.2,0.2,0.4,0.4,0.4
		h0.4c0.2,0,0.4-0.2,0.4-0.4v-13.7l9.6,14.4c0.1,0.2,0.3,0.2,0.5,0.1c0.2-0.1,0.2-0.2,0.2-0.4V184c0-0.2-0.2-0.4-0.4-0.4H341.8
		L341.8,183.6z M358,184.8h5.9c0.2,0,0.4-0.2,0.4-0.4V184c0-0.2-0.2-0.4-0.4-0.4h-6.7c-0.2,0-0.4,0.2-0.4,0.4v15.9
		c0,0.2,0.2,0.4,0.4,0.4h6.7c0.2,0,0.4-0.2,0.4-0.4v-0.4c0-0.2-0.2-0.4-0.4-0.4H358v-7.2h5.9c0.2,0,0.4-0.2,0.4-0.4V191
		c0-0.2-0.2-0.4-0.4-0.4H358V184.8L358,184.8z M384.4,183.6c-0.2,0-0.4,0.2-0.4,0.4v15.9c0,0.2,0.2,0.4,0.4,0.4h2
		c3.7,0,5.6-2.2,5.6-4.8c0-1.9-1.1-3.4-2.6-4.2c1.3-0.7,2-2,2-3.6c0-2.5-1.7-4.1-4.6-4.1L384.4,183.6L384.4,183.6z M385.2,190.6
		v-5.9h1.7c2,0,3.4,1.1,3.4,2.9c0,1.8-1.1,2.8-3.2,2.9h-1.9V190.6z M385.2,199.1v-7.2h1.9c2.3,0.1,3.7,1.8,3.7,3.6
		c0,2.3-1.7,3.6-4.4,3.6L385.2,199.1L385.2,199.1z M406.3,184.8h5.9c0.2,0,0.4-0.2,0.4-0.4V184c0-0.2-0.2-0.4-0.4-0.4h-6.7
		c-0.2,0-0.4,0.2-0.4,0.4v15.9c0,0.2,0.2,0.4,0.4,0.4h6.7c0.2,0,0.4-0.2,0.4-0.4v-0.4c0-0.2-0.2-0.4-0.4-0.4h-5.9v-7.2h5.9
		c0.2,0,0.4-0.2,0.4-0.4V191c0-0.2-0.2-0.4-0.4-0.4h-5.9V184.8L406.3,184.8z M430.1,183.5c-0.1-0.2-0.2-0.3-0.4-0.3
		c-0.2,0-0.3,0.1-0.4,0.3l-5.2,16.3c-0.1,0.3,0.1,0.5,0.4,0.5h0.5c0.2,0,0.3-0.1,0.4-0.3l1.2-3.8h6.5l1.2,3.8
		c0.1,0.2,0.2,0.3,0.4,0.3h0.5c0.3,0,0.4-0.3,0.4-0.5L430.1,183.5L430.1,183.5z M432.6,195h-5.7l2.8-9L432.6,195L432.6,195z
		 M462.9,183.5c0-0.2-0.2-0.4-0.4-0.4c-0.3,0-0.3,0.2-0.4,0.3l-6.8,14.9l-6.9-14.9c-0.1-0.2-0.2-0.3-0.4-0.3c-0.2,0-0.4,0.2-0.4,0.4
		v16.4c0,0.2,0.2,0.4,0.4,0.4h0.4c0.2,0,0.4-0.2,0.4-0.4v-12.7l6.1,13.3c0.1,0.1,0.2,0.2,0.4,0.2c0.2,0,0.3-0.1,0.4-0.2l6.1-13.3
		v12.7c0,0.2,0.2,0.4,0.4,0.4h0.4c0.2,0,0.4-0.2,0.4-0.4v-16.4H462.9z"/>
</g>
</svg>
