<?xml version="1.0"?>
<svg xmlns="http://www.w3.org/2000/svg" xmlns:xlink="http://www.w3.org/1999/xlink" version="1.1" id="Layer_1" x="0px" y="0px" viewBox="0 0 489.5 489.5" style="enable-background:new 0 0 489.5 489.5;" xml:space="preserve" width="512px" height="512px" class=""><g><g>
	<g>
		<path style="fill:#FFFFFF" d="M244.75,0c-5.5,0-9.9,4.4-9.9,9.9V370l-73.9-73.9c-3.9-3.9-10.1-3.9-14,0s-3.9,10.1,0,14l90.8,90.8    c1.9,1.9,4.5,2.9,7,2.9s5.1-1,7-2.9l90.8-90.8c3.9-3.9,3.9-10.1,0-14s-10.1-3.9-14,0l-73.9,73.9V9.9C254.65,4.4,250.25,0,244.75,0    z" data-original="#3C92CA" class="" data-old_color="#ffffff"/>
		<path style="fill:#FFFFFF" d="M38.75,366.9c-5.5,0-9.9,4.4-9.9,9.9v102.8c0,5.5,4.4,9.9,9.9,9.9h412c5.5,0,9.9-4.4,9.9-9.9V376.8    c0-5.5-4.4-9.9-9.9-9.9s-9.9,4.4-9.9,9.9v92.9H48.65v-92.9C48.65,371.3,44.25,366.9,38.75,366.9z" data-original="#2C2F33" class="active-path" data-old_color="#ffffff"/>
	</g>
</g></g> </svg>
