<?xml version="1.0" encoding="utf-8"?>
<!-- Generator: Adobe Illustrator 21.1.0, SVG Export Plug-In . SVG Version: 6.00 Build 0)  -->
<svg version="1.1" id="Layer_1" xmlns="http://www.w3.org/2000/svg" xmlns:xlink="http://www.w3.org/1999/xlink" x="0px" y="0px"
	 viewBox="0 0 180 180" style="enable-background:new 0 0 180 180;" xml:space="preserve">
<style type="text/css">
	.st0{fill:#202454;}
</style>
<g>
	<path class="st0" d="M159.9,120.8h4l6.1,17.4h-3.9l-1.1-3.6h-6.3l-1.2,3.6h-3.7L159.9,120.8z M159.7,131.6h4.3l-2.1-6.8
		L159.7,131.6z M151.8,138.2h-3.5v-17.4h3.5V138.2z M130.7,129.6c0-3,0.8-5.4,2.4-7.1c1.3-1.4,3.1-2.2,5.3-2.2c2.9,0,5,1,6.3,2.9
		c0.8,1.1,1.1,2.2,1.2,3.3h-3.5c-0.3-0.8-0.5-1.4-0.9-1.8c-0.7-0.8-1.6-1.2-2.9-1.2c-1.3,0-2.4,0.5-3,1.6c-0.8,1.1-1.1,2.6-1.1,4.5
		c0,1.9,0.4,3.4,1.2,4.4c0.8,1,1.8,1.4,3,1.4c1.3,0,2.2-0.4,2.9-1.3c0.3-0.4,0.7-1.1,0.9-2h3.5c-0.3,1.9-1.1,3.4-2.4,4.6
		c-1.3,1.2-2.9,1.8-4.9,1.8c-2.4,0-4.4-0.8-5.8-2.4C131.3,134.6,130.7,132.4,130.7,129.6z M114.3,120.8h3.7l6.8,12.2v-12.2h3.3v17.4
		h-3.5l-7-12.4v12.4h-3.4L114.3,120.8L114.3,120.8z M111.7,129.4c0,3.1-0.8,5.5-2.6,7.2c-1.3,1.3-3.1,2-5.5,2s-4.3-0.7-5.5-2
		c-1.7-1.7-2.6-4-2.6-7.2c0-3.2,0.8-5.5,2.6-7.1c1.3-1.3,3.1-2,5.5-2s4.3,0.7,5.5,2C110.8,123.9,111.7,126.2,111.7,129.4z
		 M103.5,135.6c1.4,0,2.5-0.5,3.4-1.6c0.8-1.1,1.3-2.6,1.3-4.5s-0.4-3.4-1.3-4.5c-0.8-1.1-1.9-1.6-3.4-1.6s-2.5,0.5-3.4,1.6
		c-0.8,1.1-1.3,2.6-1.3,4.5s0.4,3.4,1.3,4.5C100.9,135.1,102.1,135.6,103.5,135.6z M86.2,120.8c1.1,0,1.9,0.2,2.6,0.3
		c1.2,0.4,2.2,1.2,2.9,2.2c0.6,0.8,1,1.8,1.2,2.9c0.3,1,0.3,1.9,0.3,2.9c0,2.4-0.4,4.3-1.3,5.9c-1.3,2.2-3.1,3.3-5.7,3.3h-7.3v-17.4
		H86.2z M82.4,123.8v11.3h3.3c1.7,0,2.9-0.8,3.5-2.5c0.3-0.9,0.5-2,0.5-3.3c0-1.8-0.3-3.1-0.8-4.1c-0.5-0.9-1.6-1.4-3.3-1.4H82.4z
		 M76.2,129.4c0,3.1-0.8,5.5-2.6,7.2c-1.3,1.3-3.1,2-5.5,2s-4.3-0.7-5.5-2c-1.7-1.7-2.6-4-2.6-7.2c0-3.2,0.8-5.5,2.6-7.1
		c1.3-1.3,3.1-2,5.5-2s4.3,0.7,5.5,2C75.3,123.9,76.2,126.2,76.2,129.4z M68.1,135.6c1.4,0,2.5-0.5,3.4-1.6c0.8-1.1,1.3-2.6,1.3-4.5
		s-0.4-3.4-1.3-4.5s-1.9-1.6-3.4-1.6c-1.4,0-2.5,0.5-3.4,1.6c-0.8,1.1-1.3,2.6-1.3,4.5s0.4,3.4,1.3,4.5
		C65.5,135.1,66.6,135.6,68.1,135.6z M50.8,120.8c1.1,0,1.9,0.2,2.6,0.3c1.2,0.4,2.2,1.2,2.9,2.2c0.6,0.8,1,1.8,1.2,2.9
		c0.3,1,0.3,1.9,0.3,2.9c0,2.4-0.4,4.3-1.3,5.9c-1.3,2.2-3.1,3.3-5.7,3.3h-7.3v-17.4H50.8z M46.9,123.8v11.3h3.3
		c1.7,0,2.9-0.8,3.5-2.5c0.3-0.9,0.5-2,0.5-3.3c0-1.8-0.3-3.1-0.8-4.1c-0.5-0.9-1.6-1.4-3.3-1.4H46.9z M26.3,120.8H30l6.8,12.2
		v-12.2h3.3v17.4h-3.5l-7-12.4v12.4h-3.4L26.3,120.8L26.3,120.8z M23.2,123.8h-9v3.7h8.2v3h-8.2v4.5h9.4v3.1H10.7v-17.4h12.5V123.8z
		"/>
	<path class="st0" d="M164,140.9h1.7l3.9,11.8h-1.6l-1.1-3.5h-4.3l-1.2,3.5H160L164,140.9z M166.5,147.8l-1.7-5.2l-1.8,5.2H166.5z
		 M150.7,140.6c1.3,0,2.4,0.4,3.2,1.2c0.8,0.8,1.2,1.7,1.3,2.7h-1.4c-0.2-0.8-0.5-1.3-1-1.8c-0.5-0.4-1.2-0.7-2-0.7
		c-1.1,0-1.9,0.4-2.6,1.3c-0.7,0.8-1,2.1-1,3.8c0,1.3,0.3,2.5,0.9,3.4c0.6,0.8,1.5,1.3,2.7,1.3c1.1,0,1.9-0.4,2.5-1.3
		c0.3-0.5,0.5-1.1,0.7-1.8h1.4c-0.2,1.3-0.6,2.3-1.3,3.1c-0.8,1-2,1.5-3.5,1.5c-1.3,0-2.4-0.4-3.2-1.3c-1.2-1.1-1.7-2.8-1.7-5
		c0-1.8,0.4-3.2,1.3-4.3C147.8,141.2,149.1,140.6,150.7,140.6z M138.4,140.9h1.5v11.8h-1.5V140.9z M130.9,144.3
		c0-0.8-0.3-1.4-0.9-1.8c-0.3-0.2-0.8-0.3-1.3-0.3h-2.9v4h2.9c0.7,0,1.2-0.2,1.6-0.4C130.8,145.6,130.9,145.1,130.9,144.3z
		 M124.3,140.9h4.9c1,0,1.8,0.3,2.4,0.9c0.6,0.6,0.9,1.4,0.9,2.5c0,0.9-0.3,1.7-0.8,2.4c-0.5,0.7-1.3,1-2.4,1h-3.4v5h-1.5
		L124.3,140.9L124.3,140.9z M113.4,151.5c1.3,0,2.3-0.5,2.9-1.5c0.6-1,0.8-2.2,0.8-3.4c0-1.3-0.3-2.5-1-3.4
		c-0.7-0.8-1.6-1.3-2.8-1.3c-1.1,0-2,0.4-2.8,1.3c-0.8,0.8-1.1,2.1-1.1,3.7c0,1.3,0.3,2.4,0.9,3.3C111,151.1,112,151.5,113.4,151.5z
		 M113.2,140.6c1.9,0,3.4,0.7,4.3,2c0.8,1,1.1,2.4,1.1,3.9c0,1.8-0.4,3.2-1.3,4.4c-0.9,1.3-2.4,2-4.1,2c-1.7,0-3-0.6-3.9-1.8
		c-0.8-1.2-1.3-2.6-1.3-4.4c0-1.6,0.3-2.9,1.1-4.1C110,141.3,111.3,140.6,113.2,140.6z M98.3,140.6c1.3,0,2.4,0.4,3.2,1.2
		s1.2,1.7,1.3,2.7h-1.4c-0.2-0.8-0.5-1.3-1-1.8c-0.5-0.4-1.2-0.7-2-0.7c-1.1,0-1.9,0.4-2.6,1.3c-0.7,0.8-1,2.1-1,3.8
		c0,1.3,0.3,2.5,0.9,3.4c0.6,0.8,1.5,1.3,2.7,1.3c1.1,0,1.9-0.4,2.5-1.3c0.3-0.5,0.5-1.1,0.7-1.8h1.4c-0.2,1.3-0.6,2.3-1.3,3.1
		c-0.8,1-2,1.5-3.5,1.5c-1.3,0-2.4-0.4-3.2-1.3c-1.2-1.1-1.7-2.8-1.7-5c0-1.8,0.4-3.2,1.3-4.3C95.5,141.2,96.7,140.6,98.3,140.6z
		 M80.8,148.8c0,0.7,0.2,1.2,0.4,1.6c0.5,0.8,1.3,1.2,2.6,1.2c0.6,0,1.1-0.1,1.5-0.3c0.8-0.3,1.3-0.9,1.3-1.8c0-0.7-0.2-1.1-0.6-1.3
		c-0.4-0.3-0.9-0.5-1.8-0.7l-1.5-0.3c-0.9-0.3-1.7-0.5-2-0.8c-0.7-0.5-1-1.3-1-2.2c0-1.1,0.3-1.9,1-2.6c0.7-0.7,1.7-1,2.9-1
		c1.2,0,2.1,0.3,2.9,0.9c0.8,0.6,1.2,1.5,1.2,2.9h-1.3c-0.1-0.6-0.3-1.1-0.5-1.4c-0.4-0.6-1.2-0.9-2.3-0.9c-0.8,0-1.5,0.2-1.8,0.6
		c-0.4,0.4-0.6,0.8-0.6,1.3c0,0.6,0.3,1,0.7,1.3c0.3,0.2,0.9,0.4,2,0.7l1.5,0.3c0.8,0.2,1.3,0.4,1.7,0.8c0.7,0.6,1,1.3,1,2.4
		c0,1.3-0.4,2.3-1.3,2.8c-0.8,0.6-1.9,0.8-3,0.8c-1.3,0-2.4-0.3-3.2-1.1c-0.8-0.8-1.2-1.8-1.1-3L80.8,148.8L80.8,148.8z M69,151.5
		c1.3,0,2.3-0.5,2.9-1.5c0.6-1,0.8-2.2,0.8-3.4c0-1.3-0.3-2.5-1-3.4c-0.7-0.8-1.6-1.3-2.8-1.3c-1.1,0-2,0.4-2.8,1.3
		c-0.7,0.8-1.1,2.1-1.1,3.7c0,1.3,0.3,2.4,0.9,3.3C66.6,151.1,67.6,151.5,69,151.5z M68.8,140.6c1.9,0,3.4,0.7,4.3,2
		c0.8,1,1.1,2.4,1.1,3.9c0,1.8-0.4,3.2-1.3,4.4c-0.9,1.3-2.4,2-4.1,2c-1.7,0-3-0.6-3.9-1.8c-0.8-1.2-1.3-2.6-1.3-4.4
		c0-1.6,0.3-2.9,1.1-4.1C65.6,141.3,67,140.6,68.8,140.6z M49.6,140.9h5c0.8,0,1.5,0.2,2,0.4c1,0.5,1.5,1.4,1.5,2.8
		c0,0.7-0.2,1.3-0.4,1.8c-0.3,0.4-0.7,0.8-1.1,1.1c0.4,0.2,0.8,0.4,0.9,0.8c0.3,0.3,0.3,0.8,0.3,1.5l0.1,1.6c0,0.4,0.1,0.8,0.1,1
		c0.1,0.3,0.3,0.6,0.5,0.8v0.3h-1.8c-0.1-0.1-0.1-0.3-0.1-0.4s-0.1-0.5-0.1-0.9l-0.1-1.9c0-0.8-0.3-1.3-0.8-1.5
		c-0.3-0.2-0.8-0.3-1.3-0.3H51v5h-1.5L49.6,140.9L49.6,140.9z M54.5,146.3c0.7,0,1.3-0.2,1.7-0.4c0.4-0.3,0.6-0.8,0.6-1.6
		c0-0.8-0.3-1.4-0.8-1.7c-0.3-0.2-0.7-0.3-1.2-0.3h-3.6v4L54.5,146.3L54.5,146.3z M39.2,140.6c1.3,0,2.4,0.4,3.2,1.2
		c0.8,0.8,1.2,1.7,1.3,2.7h-1.4c-0.2-0.8-0.5-1.3-1-1.8c-0.5-0.4-1.2-0.7-2-0.7c-1.1,0-1.9,0.4-2.6,1.3c-0.7,0.8-1,2.1-1,3.8
		c0,1.3,0.3,2.5,0.9,3.4c0.6,0.8,1.5,1.3,2.7,1.3c1.1,0,1.9-0.4,2.5-1.3c0.3-0.5,0.5-1.1,0.7-1.8h1.4c-0.2,1.3-0.6,2.3-1.3,3.1
		c-0.8,1-2,1.5-3.5,1.5c-1.3,0-2.4-0.4-3.2-1.3c-1.2-1.1-1.7-2.8-1.7-5c0-1.8,0.4-3.2,1.3-4.3C36.3,141.2,37.6,140.6,39.2,140.6z
		 M26.9,140.9h1.5v11.8h-1.5V140.9z M10,140.9h2.1l3.1,9.9l3.1-9.9h2.1v11.8H19v-7c0-0.3,0-0.7,0-1.2c0-0.6,0-1.2,0-1.8l-3.1,9.9
		h-1.4l-3.1-9.9v0.3c0,0.3,0,0.8,0,1.3s0,1,0,1.3v7H10V140.9z"/>
	<path class="st0" d="M48.7,99.8c2.2,0,3.8-0.3,4.7-0.8c1.6-0.8,2.4-2.3,2.4-4.5V58.4c0-2.2-0.8-3.7-2.3-4.5
		c-0.9-0.5-2.5-0.8-4.9-0.8V49h27.1v4.1c-2.4,0.1-4,0.3-5,0.8c-1.5,0.8-2.3,2.3-2.3,4.5v36.1c0,2.1,0.6,3.4,1.8,4.2
		c1.2,0.7,3,1,5.5,1v4.1H48.7V99.8z"/>
	<path class="st0" d="M103.1,100.4c2.2,0,3.8-0.3,4.7-0.8c1.6-0.8,2.4-2.3,2.4-4.5V59.1c0-2.2-0.8-3.7-2.3-4.5
		c-0.9-0.5-2.5-0.8-4.9-0.8v-4.1h27.1v4.1c-2.4,0.1-4,0.3-5,0.8c-1.5,0.8-2.3,2.3-2.3,4.5v36.1c0,2.1,0.6,3.4,1.8,4.2
		c1.2,0.7,3,1,5.5,1v4.1h-27.1C103.1,104.6,103.1,100.4,103.1,100.4z"/>
	<polygon class="st0" points="69.2,68.6 92.8,44.9 101.1,53.2 77.6,76.9 	"/>
	<polygon class="st0" points="81.9,81.5 112.8,50.2 126.6,53.5 90.3,89.8 	"/>
	
		<rect x="55.6" y="39.8" transform="matrix(0.7071 -0.7071 0.7071 0.7071 -9.9313 67.3294)" class="st0" width="41.3" height="11.8"/>
</g>
</svg>
